<svg width="1000" height="200" viewBox="0 0 1000 200" fill="none" xmlns="http://www.w3.org/2000/svg">
<path d="M69.02 158.329C68.1555 158.298 67.3121 158.065 66.5632 157.649C65.7548 157.241 65.0493 156.667 64.4967 155.968L36.0563 118.466C35.4927 117.813 35.0158 117.466 34.6112 117.438H33.8164C33.181 117.447 32.5665 117.657 32.0677 118.035L14.148 132.925C13.5218 133.585 13.0314 134.354 12.7029 135.189C12.3251 135.994 12.1187 136.863 12.0959 137.745V155.399C12.1076 156.164 11.8127 156.905 11.2722 157.468C11.0228 157.753 10.7104 157.98 10.3579 158.134C10.0054 158.288 9.6216 158.364 9.23454 158.357H2.77476C2.40374 158.355 2.03769 158.275 1.70289 158.121C1.36809 157.968 1.07282 157.745 0.838271 157.468C0.29373 156.907 -0.00622654 156.166 9.80173e-05 155.399V77.9638C-0.00330746 77.1969 0.296245 76.4572 0.838271 75.8943C1.07282 75.618 1.36809 75.395 1.70289 75.2413C2.03769 75.0876 2.40374 75.007 2.77476 75.0054H9.23454C9.6216 74.9985 10.0054 75.0747 10.3579 75.2285C10.7104 75.3823 11.0228 75.6097 11.2722 75.8943C11.8102 76.4586 12.1047 77.1985 12.0959 77.9638V117.119C12.0959 117.966 12.226 118.508 12.4716 118.591C12.6355 118.698 12.824 118.765 13.0208 118.786C13.4676 118.764 13.8921 118.592 14.2203 118.299L63.9042 76.8805C64.5956 76.2845 65.3937 75.8139 66.2597 75.4915C67.0934 75.1543 67.9856 74.9705 68.8899 74.9498H81.1736C82.0262 74.9498 82.4598 75.1443 82.4598 75.5471C82.372 76.041 82.1121 76.4917 81.7227 76.8249L45.9844 106.507C45.4982 106.843 45.1543 107.336 45.0162 107.896C45.0162 108.294 45.0162 108.558 45.0162 108.688C45.0193 109.363 45.2471 110.021 45.6665 110.563L80.6533 155.926C80.9354 156.299 81.0963 156.744 81.1158 157.204C81.1158 157.927 80.6341 158.288 79.6706 158.288L69.02 158.329Z" fill="url(#paint0_linear_8179_448878)"/>
<path d="M99.3976 80.3393C98.1655 78.8587 97.5386 76.9966 97.6345 75.1029C97.6215 73.3144 98.2434 71.5751 99.3976 70.1721C100.045 69.4282 100.868 68.8435 101.798 68.4667C102.728 68.0898 103.738 67.9316 104.745 68.0053C105.735 67.9311 106.729 68.0696 107.657 68.4107C108.584 68.7519 109.421 69.2871 110.106 69.9776C111.319 71.4242 111.941 73.2468 111.855 75.1029C111.871 76.9066 111.255 78.6632 110.106 80.0893C109.464 80.8471 108.642 81.4449 107.709 81.8318C106.775 82.2187 105.758 82.3833 104.745 82.3116C103.757 82.3847 102.765 82.2457 101.84 81.9045C100.915 81.5634 100.081 81.0287 99.3976 80.3393ZM101.334 158.33C101.024 158.331 100.718 158.265 100.438 158.138C100.158 158.01 99.9113 157.824 99.7155 157.594C99.2653 157.125 99.0173 156.509 99.0218 155.871V98.382C99.009 98.0563 99.0638 97.7313 99.1829 97.4261C99.302 97.1209 99.483 96.8415 99.7155 96.6041C99.9197 96.386 100.169 96.2114 100.448 96.0918C100.727 95.9722 101.029 95.9101 101.334 95.9096H108.17C108.488 95.9045 108.805 95.9636 109.099 96.0832C109.392 96.2029 109.657 96.3803 109.875 96.6041C110.107 96.8415 110.288 97.1209 110.407 97.4261C110.527 97.7313 110.581 98.0563 110.568 98.382V155.885C110.573 156.523 110.325 157.139 109.875 157.608C109.666 157.845 109.404 158.034 109.109 158.161C108.814 158.289 108.493 158.351 108.17 158.344L101.334 158.33Z" fill="url(#paint1_linear_8179_448878)"/>
<path d="M145.711 154.496C140.262 151.977 135.634 148.071 132.329 143.204C129.068 138.329 127.378 132.637 127.474 126.842C127.378 122.011 128.364 117.218 130.364 112.785C132.224 108.77 134.982 105.199 138.442 102.326C141.931 99.4412 145.957 97.2167 150.307 95.7705C154.863 94.2441 159.658 93.4784 164.484 93.5065C170.424 93.4282 176.292 94.7643 181.565 97.3956C186.509 99.8597 190.705 103.51 193.748 107.993C195.758 111.375 197.078 115.095 197.635 118.952L197.996 121.411C198.259 123.042 198.384 124.691 198.372 126.342C198.372 126.8 198.372 127.328 198.372 127.925C198.334 128.523 198.096 129.093 197.693 129.55C197.505 129.778 197.265 129.963 196.992 130.091C196.72 130.218 196.421 130.285 196.118 130.286H140.957C140.046 130.286 139.512 130.675 139.512 131.467C139.517 131.803 139.58 132.137 139.699 132.453L140.812 134.328C141.628 135.859 142.596 137.31 143.703 138.662C144.938 140.224 146.455 141.56 148.182 142.606C153.356 145.634 159.821 147.148 167.576 147.148C172.462 147.34 177.334 146.53 181.869 144.773C183.834 143.843 185.525 142.995 186.941 142.204L189.065 141.12C189.405 140.934 189.788 140.834 190.178 140.829C190.608 140.831 191.027 140.953 191.386 141.18C191.745 141.407 192.028 141.728 192.201 142.106L195.901 149.301C195.339 149.693 194.756 150.055 194.152 150.385C194.13 150.374 194.105 150.368 194.08 150.368C194.055 150.368 194.03 150.374 194.008 150.385L192.201 151.51C187.595 154.182 182.583 156.145 177.345 157.33C173.469 158.191 169.503 158.624 165.524 158.621C158.676 158.749 151.891 157.336 145.711 154.496ZM186.58 120.23C186.999 120.036 187.216 119.8 187.216 119.536C187.076 118.401 186.83 117.28 186.479 116.188L186.204 115.397C185.536 113.875 184.553 112.499 183.314 111.355C178.497 107.021 172.234 104.85 164.527 104.84C151.646 104.84 143.548 108.887 140.234 116.98L139.685 118.258L139.584 119.05C139.593 119.396 139.693 119.735 139.873 120.036C140.008 120.214 140.191 120.354 140.402 120.44C140.613 120.525 140.845 120.554 141.072 120.522H185.019C185.552 120.548 186.085 120.463 186.58 120.272V120.23Z" fill="url(#paint2_linear_8179_448878)"/>
<path d="M266.542 158.039C266.225 158.046 265.911 157.982 265.623 157.855C265.336 157.727 265.082 157.539 264.88 157.303C264.451 156.82 264.22 156.203 264.23 155.567C264.23 134.927 264.187 124.13 264.1 123.176C264.013 122.232 263.927 121.385 263.869 120.662L263.681 119.482C263.385 117.522 262.698 115.635 261.658 113.926C259.93 111.364 257.54 109.278 254.721 107.87C251.766 106.37 248.467 105.606 245.125 105.648C242.065 105.62 239.035 106.242 236.252 107.467C231.196 109.745 227.112 113.631 224.691 118.468C224.221 119.345 223.876 120.28 223.665 121.246L223.391 122.426C223.133 124.058 223.013 125.707 223.029 127.357V155.553C223.065 156.172 222.87 156.782 222.48 157.276C222.279 157.511 222.025 157.7 221.737 157.827C221.449 157.955 221.135 158.018 220.818 158.012H213.983C213.674 158.008 213.369 157.94 213.09 157.813C212.811 157.686 212.563 157.503 212.364 157.276C211.911 156.803 211.662 156.182 211.67 155.539V98.0778C211.652 97.4085 211.9 96.7576 212.364 96.2583C212.563 96.0311 212.811 95.8478 213.09 95.7208C213.369 95.5938 213.674 95.526 213.983 95.5221H220.818C221.135 95.516 221.449 95.5791 221.737 95.7066C222.025 95.8341 222.279 96.0227 222.48 96.2583C222.915 96.771 223.146 97.4162 223.13 98.0778V104.592C223.13 105.453 223.347 105.87 223.766 105.87C224.153 105.814 224.511 105.644 224.792 105.384L226.237 104.106C227.09 103.245 228.174 102.259 229.46 101.147C230.741 100.038 232.098 99.0128 233.521 98.0778C237.849 95.4796 242.87 94.1476 247.972 94.2442C253.364 94.0552 258.704 95.3154 263.392 97.8833C266.148 99.4367 268.545 101.516 270.434 103.993C272.323 106.47 273.664 109.293 274.375 112.287C274.763 113.748 275.071 115.226 275.3 116.718L275.589 118.69C275.762 120.857 275.864 122.51 275.864 123.621V155.567C275.872 156.21 275.624 156.831 275.17 157.303C274.971 157.531 274.724 157.715 274.445 157.842C274.165 157.969 273.86 158.036 273.551 158.039H266.542Z" fill="url(#paint3_linear_8179_448878)"/>
<path d="M297.498 158.663C297.188 158.661 296.881 158.593 296.601 158.464C296.321 158.334 296.075 158.146 295.88 157.913C295.427 157.446 295.179 156.829 295.186 156.191V73.0336C295.179 72.3952 295.427 71.7785 295.88 71.3113C296.075 71.0805 296.322 70.8946 296.602 70.7673C296.882 70.6399 297.188 70.5743 297.498 70.5751H304.334C304.651 70.5659 304.966 70.6275 305.255 70.7553C305.543 70.883 305.797 71.0733 305.996 71.3113C306.424 71.7897 306.655 72.4024 306.646 73.0336V156.163C306.655 156.794 306.424 157.407 305.996 157.886C305.798 158.125 305.544 158.318 305.256 158.448C304.968 158.578 304.652 158.642 304.334 158.636L297.498 158.663Z" fill="url(#paint4_linear_8179_448878)"/>
<path d="M342.021 154.496C338.033 152.398 334.523 149.552 331.7 146.126C328.876 142.701 326.797 138.766 325.584 134.554C324.371 130.343 324.05 125.94 324.639 121.607C325.229 117.273 326.717 113.098 329.015 109.327C332.153 104.409 336.657 100.43 342.021 97.8405C348.019 95.1152 354.571 93.7017 361.205 93.7017C367.84 93.7017 374.392 95.1152 380.39 97.8405C385.718 100.449 390.19 104.425 393.309 109.327C395.719 113.065 397.3 117.241 397.953 121.594C398.606 125.946 398.317 130.381 397.104 134.621C395.891 138.862 393.781 142.815 390.905 146.235C388.029 149.655 384.449 152.468 380.39 154.496C374.402 157.257 367.846 158.691 361.205 158.691C354.565 158.691 348.009 157.257 342.021 154.496ZM374.378 144.774C378.072 143.143 381.246 140.591 383.569 137.384C385.788 134.261 386.949 130.555 386.893 126.773V125.495C386.939 121.749 385.778 118.081 383.569 114.994C381.25 111.784 378.076 109.231 374.378 107.605C370.253 105.808 365.777 104.878 361.249 104.878C356.72 104.878 352.244 105.808 348.12 107.605C344.405 109.223 341.214 111.776 338.885 114.994C336.677 118.081 335.516 121.749 335.561 125.495V126.717C335.505 130.499 336.666 134.205 338.885 137.329C341.218 140.543 344.408 143.096 348.12 144.718C352.247 146.503 356.722 147.426 361.249 147.426C365.775 147.426 370.25 146.503 374.378 144.718V144.774Z" fill="url(#paint5_linear_8179_448878)"/>
<path d="M468.715 158.039C468.398 158.048 468.083 157.986 467.795 157.858C467.506 157.73 467.253 157.54 467.053 157.303C466.624 156.82 466.392 156.203 466.403 155.567C466.403 134.927 466.355 124.13 466.258 123.176C466.172 122.232 466.085 121.385 466.027 120.662L465.839 119.482C465.543 117.522 464.856 115.635 463.816 113.926C462.093 111.365 459.708 109.278 456.894 107.87C453.933 106.372 450.629 105.608 447.284 105.648C444.227 105.621 441.203 106.242 438.425 107.467C435.794 108.631 433.412 110.256 431.401 112.259C429.551 114.077 428.022 116.174 426.878 118.468C426.412 119.346 426.071 120.28 425.867 121.246L425.592 122.426C425.33 124.058 425.204 125.707 425.216 127.357V155.553C425.227 156.189 424.995 156.806 424.566 157.289C424.366 157.527 424.113 157.716 423.824 157.844C423.536 157.972 423.221 158.034 422.904 158.026H416.126C415.817 158.023 415.512 157.955 415.233 157.828C414.954 157.701 414.706 157.517 414.508 157.289C414.054 156.817 413.806 156.196 413.814 155.553V98.0778C413.795 97.4085 414.044 96.7576 414.508 96.2583C414.706 96.0304 414.954 95.8466 415.233 95.7195C415.512 95.5925 415.817 95.5251 416.126 95.5221H422.947C423.265 95.5139 423.58 95.5761 423.868 95.7037C424.156 95.8314 424.41 96.0212 424.609 96.2583C425.045 96.771 425.275 97.4162 425.26 98.0778V104.592C425.26 105.453 425.476 105.87 425.91 105.87C426.292 105.813 426.645 105.643 426.922 105.384L428.367 104.106C429.234 103.245 430.303 102.259 431.604 101.147C432.882 100.035 434.239 99.0093 435.665 98.0778C439.992 95.4773 445.014 94.1452 450.116 94.2442C455.508 94.0552 460.848 95.3154 465.536 97.8833C468.294 99.4359 470.693 101.515 472.584 103.992C474.476 106.469 475.82 109.292 476.533 112.287C476.967 113.995 477.27 115.468 477.458 116.718L477.733 118.69C477.921 120.857 478.007 122.51 478.007 123.621V155.567C478.015 156.21 477.767 156.831 477.314 157.303C477.115 157.531 476.868 157.715 476.588 157.842C476.309 157.969 476.004 158.036 475.695 158.039H468.715Z" fill="url(#paint6_linear_8179_448878)"/>
<path d="M512.57 181.007L507.671 178.645C507.251 178.377 506.911 178.008 506.685 177.574C506.46 177.14 506.356 176.657 506.385 176.173L506.472 175.187L508.784 169.561C508.896 169.131 509.157 168.75 509.525 168.483C509.893 168.215 510.346 168.076 510.807 168.089C511.126 168.092 511.441 168.159 511.732 168.284L514.044 169.27C515.489 169.992 517.339 170.784 519.492 171.631C524.277 173.325 529.352 174.131 534.45 174.006C539.215 174.391 543.957 173.05 547.746 170.247C551.535 167.443 554.097 163.379 554.927 158.853C555.346 157.2 555.693 155.797 555.939 154.602L556.213 152.838C556.469 151.435 556.595 150.013 556.589 148.588C556.589 148.06 556.459 147.81 556.213 147.81C555.968 147.81 555.563 148.06 555.014 148.588L553.713 149.88C552.654 150.886 551.481 151.776 550.216 152.533C543.367 156.739 535.38 158.913 527.253 158.783C521.05 158.914 514.921 157.477 509.477 154.616C504.463 151.936 500.347 147.937 497.613 143.088C494.724 137.942 493.261 132.169 493.364 126.323C493.236 120.41 494.8 114.577 497.887 109.461C500.909 104.591 505.27 100.617 510.489 97.9741C516.228 95.1098 522.623 93.6769 529.088 93.8072C536.547 93.7453 543.886 95.6166 550.332 99.2242C551.69 100.085 552.788 100.849 553.655 101.502L554.855 102.488C555.151 102.701 555.499 102.836 555.866 102.877C556.358 102.877 556.618 102.447 556.618 101.599V97.6686C556.605 97.3428 556.66 97.0179 556.779 96.7126C556.898 96.4074 557.079 96.128 557.312 95.8907C557.513 95.6729 557.76 95.4985 558.037 95.3788C558.313 95.2591 558.613 95.1969 558.916 95.1962H565.751C566.07 95.191 566.387 95.2502 566.68 95.3698C566.974 95.4894 567.239 95.6669 567.457 95.8907C567.689 96.128 567.87 96.4074 567.989 96.7126C568.108 97.0179 568.163 97.3428 568.15 97.6686C568.15 130.939 568.121 148.07 568.063 149.06C568.063 150.019 567.933 150.852 567.876 151.574L567.688 154.047C567.399 157.813 566.592 161.526 565.289 165.089C563.651 169.312 561.083 173.146 557.76 176.326C554.683 179.233 551.005 181.485 546.964 182.937C542.962 184.376 538.723 185.11 534.45 185.104C525.653 185.021 518.36 183.655 512.57 181.007ZM545.028 144.768C548.654 143.097 551.723 140.485 553.887 137.226C555.966 133.943 557.065 130.173 557.065 126.33C557.065 122.486 555.966 118.717 553.887 115.433C551.682 112.209 548.624 109.606 545.028 107.891C540.907 105.956 536.361 105.004 531.776 105.113C527.031 105.035 522.329 105.984 518.018 107.891C514.219 109.574 510.952 112.196 508.553 115.489C506.242 118.703 505.03 122.528 505.084 126.434C505.034 130.292 506.247 134.068 508.553 137.226C510.96 140.499 514.226 143.101 518.018 144.768C522.327 146.682 527.031 147.632 531.776 147.546C536.364 147.601 540.901 146.626 545.028 144.699V144.768Z" fill="url(#paint7_linear_8179_448878)"/>
<path d="M586.45 158.525C586.081 158.524 585.716 158.444 585.382 158.293C585.047 158.142 584.751 157.923 584.514 157.65C583.976 157.08 583.682 156.336 583.69 155.567V78.1044C583.684 77.3395 583.978 76.6006 584.514 76.0348C584.75 75.7607 585.046 75.5392 585.38 75.3857C585.715 75.2322 586.08 75.1504 586.45 75.1459H623.475C626.106 75.1805 628.732 75.38 631.336 75.7431C635.395 76.2582 639.406 77.0803 643.331 78.2016C645.144 78.7358 646.86 79.537 648.418 80.5767C653.408 84.1232 655.899 89.318 655.889 96.1609C655.978 99.1289 655.232 102.065 653.728 104.659C652.225 107.253 650.021 109.408 647.348 110.898L646.149 111.69C645.47 112.148 645.137 112.578 645.137 112.981C645.137 113.384 645.513 113.759 646.25 114.162L649.14 115.551C652.761 117.441 655.696 120.348 657.551 123.885C659.169 127.003 659.959 130.458 659.849 133.941C659.849 142.867 656.525 149.349 649.877 153.386C645.735 155.844 641.065 157.364 636.221 157.831C635.18 158.008 634.127 158.105 633.07 158.123L631.784 158.22C630.18 158.359 628.33 158.414 626.235 158.414L586.45 158.525ZM631.249 108.731L633.648 108.342C636.667 107.764 639.398 106.234 641.409 103.995C642.834 102.332 643.588 100.231 643.533 98.0777C643.661 96.4244 643.272 94.7722 642.418 93.3322C641.563 91.8922 640.281 90.7299 638.735 89.9939C635.081 88.4927 631.148 87.7223 627.174 87.7299C626.114 87.6558 616.572 87.6234 598.546 87.6327C598.175 87.6344 597.809 87.7149 597.474 87.8686C597.139 88.0223 596.844 88.2453 596.61 88.5216C596.06 89.0799 595.759 89.8226 595.771 90.5912V106.078C595.764 106.846 596.064 107.587 596.61 108.148C596.846 108.422 597.142 108.643 597.476 108.797C597.81 108.95 598.175 109.032 598.546 109.037H625.671C627.53 109.026 629.387 108.924 631.235 108.731H631.249ZM634.14 145.608C637.069 145.28 639.913 144.447 642.536 143.15C644.205 142.192 645.57 140.813 646.482 139.163C647.394 137.512 647.818 135.654 647.71 133.788C647.71 128.121 644.338 124.417 637.594 122.676C635.95 122.293 634.285 121.996 632.608 121.787L629.01 121.593H598.459C598.094 121.593 597.732 121.668 597.399 121.811C597.065 121.955 596.767 122.164 596.523 122.426C596.244 122.71 596.027 123.044 595.883 123.408C595.739 123.773 595.672 124.162 595.685 124.551V143.191C595.672 143.581 595.739 143.97 595.883 144.334C596.027 144.699 596.244 145.033 596.523 145.316C596.767 145.578 597.065 145.788 597.399 145.931C597.732 146.075 598.094 146.149 598.459 146.15H626.798C629.275 146.127 631.746 145.946 634.198 145.608H634.14Z" fill="url(#paint8_linear_8179_448878)"/>
<path d="M738.074 158.33C737.767 158.331 737.463 158.265 737.185 158.138C736.907 158.01 736.663 157.824 736.47 157.594C736.02 157.125 735.772 156.51 735.777 155.872V148.677C735.777 147.885 735.56 147.482 735.126 147.482C734.743 147.543 734.389 147.718 734.115 147.982L732.67 149.26C731.602 150.3 730.425 151.231 729.158 152.038C722.946 156.131 715.576 158.294 708.044 158.233C701.619 158.378 695.262 156.943 689.576 154.066C684.469 151.422 680.268 147.413 677.48 142.524C674.591 137.378 673.128 131.605 673.231 125.759C673.104 119.846 674.669 114.013 677.754 108.897C680.754 104.054 685.064 100.084 690.226 97.41C695.913 94.5332 702.27 93.0989 708.695 93.2431C717.39 92.9899 725.896 95.7119 732.698 100.924L733.898 101.91C734.158 102.193 734.519 102.372 734.91 102.41C735.473 102.41 735.748 101.952 735.748 101.021V97.0767C735.734 96.753 735.789 96.43 735.908 96.127C736.027 95.824 736.209 95.547 736.441 95.3127C736.643 95.0949 736.89 94.9205 737.166 94.8008C737.443 94.6811 737.742 94.6189 738.045 94.6182H744.881C745.186 94.6187 745.488 94.6808 745.767 94.8004C746.046 94.92 746.295 95.0946 746.5 95.3127C746.732 95.547 746.914 95.824 747.033 96.127C747.152 96.43 747.207 96.753 747.193 97.0767V155.886C747.198 156.523 746.95 157.139 746.5 157.608C746.304 157.839 746.057 158.024 745.777 158.152C745.497 158.279 745.191 158.345 744.881 158.344L738.074 158.33ZM724.042 144.135C727.679 142.44 730.774 139.835 733.002 136.593C735.118 133.348 736.24 129.595 736.24 125.766C736.24 121.936 735.118 118.184 733.002 114.939C730.767 111.717 727.673 109.131 724.042 107.452C719.838 105.52 715.218 104.568 710.559 104.674C705.996 104.6 701.478 105.552 697.365 107.452C693.685 109.116 690.54 111.702 688.261 114.939C686.118 118.175 684.98 121.93 684.98 125.766C684.98 129.601 686.118 133.357 688.261 136.593C690.533 139.849 693.679 142.455 697.365 144.135C701.48 146.029 705.997 146.98 710.559 146.913C715.217 147.012 719.835 146.061 724.042 144.135Z" fill="url(#paint9_linear_8179_448878)"/>
<path d="M813.341 158.039C813.024 158.045 812.71 157.982 812.422 157.855C812.134 157.727 811.88 157.538 811.679 157.303C811.25 156.82 811.018 156.202 811.029 155.567C811.029 134.927 810.985 124.13 810.899 123.176C810.797 122.232 810.725 121.384 810.667 120.662L810.479 119.481C810.178 117.521 809.487 115.634 808.442 113.926C806.719 111.365 804.334 109.278 801.52 107.87C798.564 106.372 795.265 105.608 791.924 105.647C788.863 105.62 785.833 106.241 783.051 107.467C780.426 108.634 778.05 110.259 776.042 112.259C774.182 114.073 772.649 116.171 771.504 118.467C771.044 119.348 770.704 120.281 770.492 121.245L770.218 122.426C769.955 124.057 769.83 125.706 769.842 127.357V155.553C769.85 156.186 769.625 156.801 769.206 157.289C769.005 157.525 768.751 157.713 768.463 157.841C768.175 157.968 767.861 158.031 767.544 158.025H760.709C760.4 158.022 760.095 157.955 759.815 157.828C759.536 157.701 759.289 157.517 759.09 157.289C758.637 156.817 758.388 156.196 758.397 155.553V98.0775C758.378 97.4081 758.626 96.7572 759.09 96.2579C759.289 96.0301 759.536 95.8463 759.815 95.7192C760.095 95.5921 760.4 95.5247 760.709 95.5217H767.544C767.861 95.5157 768.175 95.5788 768.463 95.7063C768.751 95.8338 769.005 96.0224 769.206 96.2579C769.636 96.7726 769.862 97.4176 769.842 98.0775V104.592C769.842 105.453 770.059 105.87 770.492 105.87C770.875 105.816 771.23 105.645 771.504 105.383L772.949 104.106C773.816 103.244 774.886 102.258 776.186 101.147C777.464 100.035 778.821 99.009 780.247 98.0775C784.575 95.4792 789.596 94.1473 794.699 94.2439C800.09 94.0563 805.43 95.3164 810.118 97.883C812.875 99.4363 815.271 101.516 817.16 103.993C819.049 106.47 820.39 109.292 821.101 112.287C821.535 113.995 821.838 115.467 822.026 116.717L822.301 118.69C822.489 120.856 822.575 122.509 822.575 123.621V155.567C822.589 156.208 822.346 156.829 821.896 157.303C821.697 157.53 821.449 157.713 821.17 157.84C820.891 157.967 820.586 158.035 820.277 158.039H813.341Z" fill="url(#paint10_linear_8179_448878)"/>
<path d="M889.628 158.232C888.117 158.16 886.695 157.522 885.668 156.454L862.546 129.939C862.295 129.688 861.994 129.489 861.661 129.353C861.329 129.217 860.971 129.147 860.609 129.147C860.045 129.151 859.495 129.32 859.034 129.633L846.75 139.356C846.188 139.848 845.748 140.456 845.464 141.134C845.118 141.809 844.925 142.548 844.9 143.301V155.732C844.905 156.367 844.662 156.981 844.221 157.454C844.022 157.681 843.775 157.865 843.495 157.992C843.216 158.119 842.912 158.187 842.603 158.19H836.822C836.513 158.187 836.208 158.12 835.929 157.993C835.649 157.866 835.402 157.682 835.204 157.454C834.753 156.986 834.505 156.37 834.51 155.732V72.644C834.502 72.0056 834.751 71.3889 835.204 70.9216C835.399 70.6891 835.645 70.5011 835.925 70.3714C836.205 70.2417 836.511 70.1734 836.822 70.1716H842.603C842.913 70.1754 843.219 70.2445 843.499 70.3741C843.778 70.5036 844.025 70.6906 844.221 70.9216C844.664 71.3939 844.906 72.0084 844.9 72.644V126.091C844.9 127.078 845.218 127.564 845.825 127.564C846.183 127.51 846.51 127.338 846.75 127.078L883.688 97.2981C884.287 96.8128 884.98 96.4448 885.726 96.2147C886.402 95.971 887.114 95.835 887.836 95.8119H899.296C900.033 95.8119 900.394 95.9786 900.394 96.312C900.394 96.6453 900.192 96.8953 899.758 97.2981L871.347 119.869C870.797 120.341 870.523 120.73 870.523 121.063V121.647C870.522 122.188 870.716 122.713 871.072 123.133L900.437 156.468C900.682 156.787 900.841 157.159 900.9 157.552C900.9 158.024 900.495 158.246 899.7 158.246L889.628 158.232Z" fill="url(#paint11_linear_8179_448878)"/>
<path d="M989.784 73.2626C995.426 73.2626 1000 68.7221 1000 63.1211C1000 57.5201 995.426 52.9796 989.784 52.9796C984.142 52.9796 979.568 57.5201 979.568 63.1211C979.568 68.7221 984.142 73.2626 989.784 73.2626Z" fill="url(#paint12_linear_8179_448878)"/>
<path d="M911.116 73.2626C916.758 73.2626 921.331 68.7221 921.331 63.1211C921.331 57.5201 916.758 52.9796 911.116 52.9796C905.474 52.9796 900.9 57.5201 900.9 63.1211C900.9 68.7221 905.474 73.2626 911.116 73.2626Z" fill="url(#paint13_linear_8179_448878)"/>
<path fill-rule="evenodd" clip-rule="evenodd" d="M980.189 82.89C979.852 77.8707 975.755 73.7781 970.673 73.4435C969.636 73.3662 968.651 73.4692 967.691 73.6751C966.058 74.0355 964.372 73.5207 963.18 72.3366L941.866 51.1784C940.648 49.8657 940.259 48.0382 940.777 46.3136C941.063 45.387 941.218 44.4088 941.218 43.3792C941.218 42.7872 941.166 42.1952 941.063 41.6289C940.829 39.6212 941.503 37.562 943.033 36.0176C944.589 34.4732 946.663 33.8297 948.686 34.0614C948.815 34.0871 949.671 34.2158 950.449 34.2158C951.252 34.2158 952.082 34.0871 952.212 34.0614C954.234 33.8297 956.309 34.499 957.864 36.0176C959.42 37.562 960.068 39.6212 959.835 41.6289C959.731 42.1952 959.679 42.7872 959.679 43.3792C959.679 49.2222 964.658 53.9069 970.621 53.495C975.651 53.1604 979.748 49.0935 980.085 44.1C980.5 38.1798 975.781 33.2377 969.895 33.2377C969.299 33.2377 968.702 33.2892 968.132 33.3922C966.11 33.6238 964.035 32.9546 962.48 31.4359C960.924 29.8915 960.276 27.8323 960.509 25.8246C960.742 24.7178 960.639 23.3793 960.613 23.0447C960.146 18.4373 956.568 14.7307 952.004 14.0615C951.486 13.9843 950.967 13.9328 950.449 13.9328C949.93 13.9328 949.412 13.9843 948.893 14.0615C944.33 14.7565 940.751 18.463 940.285 23.0447C940.259 23.3793 940.155 24.9237 940.388 25.8246C940.622 27.8323 939.948 29.8915 938.418 31.4359C936.862 32.9803 934.788 33.6238 932.765 33.3922C932.195 33.2892 931.599 33.2377 931.002 33.2377C925.116 33.2377 920.397 38.154 920.812 44.0742C921.149 49.0935 925.246 53.1862 930.328 53.5208C931.365 53.598 932.351 53.495 933.31 53.2891C934.943 52.9287 936.629 53.4436 937.821 54.6276L959.135 75.7858C960.353 77.0985 960.742 78.9261 960.224 80.6506C959.939 81.5773 959.783 82.5554 959.783 83.585C959.783 84.177 959.835 84.769 959.939 85.3353C960.172 87.343 959.498 89.4022 957.968 90.9466C956.412 92.491 954.338 93.1345 952.316 92.9028C952.186 92.8771 951.33 92.7484 950.552 92.7484C949.749 92.7484 948.919 92.8771 948.789 92.9028C946.767 93.1345 944.693 92.4652 943.137 90.9466C941.581 89.4022 940.933 87.343 941.166 85.3353C941.27 84.769 941.322 84.177 941.322 83.585C941.322 77.742 936.344 73.0574 930.38 73.4692C925.35 73.8038 921.253 77.8707 920.916 82.8643C920.501 88.7844 925.22 93.7265 931.106 93.7265C931.702 93.7265 932.299 93.675 932.869 93.5721C934.892 93.3404 936.966 94.0096 938.522 95.5283C940.077 97.0727 940.725 99.1319 940.492 101.14C940.259 102.246 940.362 103.585 940.388 103.92C940.855 108.527 944.433 112.233 948.997 112.903C949.515 112.98 950.034 113.031 950.552 113.031C951.071 113.031 951.59 112.98 952.108 112.903C956.672 112.208 960.25 108.501 960.716 103.92C960.742 103.585 960.846 102.04 960.613 101.14C960.379 99.1319 961.053 97.0727 962.583 95.5283C964.139 93.9839 966.213 93.3404 968.236 93.5721C968.806 93.675 969.402 93.7265 969.999 93.7265C975.885 93.7265 980.604 88.8102 980.189 82.89Z" fill="url(#paint14_linear_8179_448878)"/>
<defs>
<linearGradient id="paint0_linear_8179_448878" x1="41.2299" y1="155.345" x2="41.2299" y2="80.3629" gradientUnits="userSpaceOnUse">
<stop stop-color="#F47920"/>
<stop offset="0.02" stop-color="#F47720"/>
<stop offset="0.37" stop-color="#F26122"/>
<stop offset="0.71" stop-color="#F05324"/>
<stop offset="1" stop-color="#F04E24"/>
</linearGradient>
<linearGradient id="paint1_linear_8179_448878" x1="104.744" y1="155.08" x2="104.744" y2="73.85" gradientUnits="userSpaceOnUse">
<stop stop-color="#F47920"/>
<stop offset="0.02" stop-color="#F47720"/>
<stop offset="0.37" stop-color="#F26122"/>
<stop offset="0.71" stop-color="#F05324"/>
<stop offset="1" stop-color="#F04E24"/>
</linearGradient>
<linearGradient id="paint2_linear_8179_448878" x1="162.92" y1="156.277" x2="162.92" y2="97.7299" gradientUnits="userSpaceOnUse">
<stop stop-color="#F47920"/>
<stop offset="0.02" stop-color="#F47720"/>
<stop offset="0.37" stop-color="#F26122"/>
<stop offset="0.71" stop-color="#F05324"/>
<stop offset="1" stop-color="#F04E24"/>
</linearGradient>
<linearGradient id="paint3_linear_8179_448878" x1="243.767" y1="155.735" x2="243.767" y2="98.3672" gradientUnits="userSpaceOnUse">
<stop stop-color="#F47920"/>
<stop offset="0.02" stop-color="#F47720"/>
<stop offset="0.37" stop-color="#F26122"/>
<stop offset="0.71" stop-color="#F05324"/>
<stop offset="1" stop-color="#F04E24"/>
</linearGradient>
<linearGradient id="paint4_linear_8179_448878" x1="300.916" y1="155.481" x2="300.916" y2="76.2911" gradientUnits="userSpaceOnUse">
<stop stop-color="#F47920"/>
<stop offset="0.02" stop-color="#F47720"/>
<stop offset="0.37" stop-color="#F26122"/>
<stop offset="0.71" stop-color="#F05324"/>
<stop offset="1" stop-color="#F04E24"/>
</linearGradient>
<linearGradient id="paint5_linear_8179_448878" x1="361.323" y1="156.343" x2="361.323" y2="97.9194" gradientUnits="userSpaceOnUse">
<stop stop-color="#F47920"/>
<stop offset="0.02" stop-color="#F47720"/>
<stop offset="0.37" stop-color="#F26122"/>
<stop offset="0.71" stop-color="#F05324"/>
<stop offset="1" stop-color="#F04E24"/>
</linearGradient>
<linearGradient id="paint6_linear_8179_448878" x1="445.91" y1="155.735" x2="445.91" y2="98.3672" gradientUnits="userSpaceOnUse">
<stop stop-color="#F47920"/>
<stop offset="0.02" stop-color="#F47720"/>
<stop offset="0.37" stop-color="#F26122"/>
<stop offset="0.71" stop-color="#F05324"/>
<stop offset="1" stop-color="#F04E24"/>
</linearGradient>
<linearGradient id="paint7_linear_8179_448878" x1="530.754" y1="181.806" x2="530.754" y2="99.7247" gradientUnits="userSpaceOnUse">
<stop stop-color="#F47920"/>
<stop offset="0.02" stop-color="#F47720"/>
<stop offset="0.37" stop-color="#F26122"/>
<stop offset="0.71" stop-color="#F05324"/>
<stop offset="1" stop-color="#F04E24"/>
</linearGradient>
<linearGradient id="paint8_linear_8179_448878" x1="621.718" y1="156.886" x2="621.718" y2="75.9078" gradientUnits="userSpaceOnUse">
<stop stop-color="#32C3E3"/>
<stop offset="0.08" stop-color="#30BCE1"/>
<stop offset="0.41" stop-color="#2AA6D8"/>
<stop offset="0.73" stop-color="#2698D3"/>
<stop offset="1" stop-color="#2593D1"/>
</linearGradient>
<linearGradient id="paint9_linear_8179_448878" x1="710.155" y1="157.063" x2="710.155" y2="93.822" gradientUnits="userSpaceOnUse">
<stop stop-color="#32C3E3"/>
<stop offset="0.08" stop-color="#30BCE1"/>
<stop offset="0.41" stop-color="#2AA6D8"/>
<stop offset="0.73" stop-color="#2698D3"/>
<stop offset="1" stop-color="#2593D1"/>
</linearGradient>
<linearGradient id="paint10_linear_8179_448878" x1="790.438" y1="156.784" x2="790.438" y2="94.8088" gradientUnits="userSpaceOnUse">
<stop stop-color="#32C3E3"/>
<stop offset="0.08" stop-color="#30BCE1"/>
<stop offset="0.41" stop-color="#2AA6D8"/>
<stop offset="0.73" stop-color="#2698D3"/>
<stop offset="1" stop-color="#2593D1"/>
</linearGradient>
<linearGradient id="paint11_linear_8179_448878" x1="867.656" y1="156.514" x2="867.656" y2="70.9764" gradientUnits="userSpaceOnUse">
<stop stop-color="#32C3E3"/>
<stop offset="0.08" stop-color="#30BCE1"/>
<stop offset="0.41" stop-color="#2AA6D8"/>
<stop offset="0.73" stop-color="#2698D3"/>
<stop offset="1" stop-color="#2593D1"/>
</linearGradient>
<linearGradient id="paint12_linear_8179_448878" x1="979.568" y1="63.1199" x2="995.36" y2="63.1199" gradientUnits="userSpaceOnUse">
<stop stop-color="#31C3E3"/>
<stop offset="1" stop-color="#228BCC"/>
</linearGradient>
<linearGradient id="paint13_linear_8179_448878" x1="900.9" y1="63.1199" x2="916.691" y2="63.1199" gradientUnits="userSpaceOnUse">
<stop stop-color="#31C3E3"/>
<stop offset="1" stop-color="#228BCC"/>
</linearGradient>
<linearGradient id="paint14_linear_8179_448878" x1="920.787" y1="63.4821" x2="980.214" y2="63.4821" gradientUnits="userSpaceOnUse">
<stop stop-color="#F58220"/>
<stop offset="1" stop-color="#F04F24"/>
</linearGradient>
</defs>
</svg>
