<svg width="100" height="101" viewBox="0 0 100 101" fill="none" xmlns="http://www.w3.org/2000/svg">
<path d="M89.7839 60.2626C95.4259 60.2626 99.9998 55.7221 99.9998 50.1211C99.9998 44.5201 95.4259 39.9796 89.7839 39.9796C84.1418 39.9796 79.568 44.5201 79.568 50.1211C79.568 55.7221 84.1418 60.2626 89.7839 60.2626Z" fill="url(#paint0_linear_10410_16)"/>
<path d="M11.1156 60.2626C16.7576 60.2626 21.3314 55.7221 21.3314 50.1211C21.3314 44.5201 16.7576 39.9796 11.1156 39.9796C5.47351 39.9796 0.899719 44.5201 0.899719 50.1211C0.899719 55.7221 5.47351 60.2626 11.1156 60.2626Z" fill="url(#paint1_linear_10410_16)"/>
<path fill-rule="evenodd" clip-rule="evenodd" d="M80.1888 69.89C79.8517 64.8707 75.755 60.7781 70.673 60.4435C69.6358 60.3662 68.6506 60.4692 67.6912 60.6751C66.0577 61.0355 64.3723 60.5207 63.1796 59.3366L41.8663 38.1784C40.6477 36.8657 40.2588 35.0382 40.7773 33.3136C41.0626 32.387 41.2181 31.4088 41.2181 30.3792C41.2181 29.7872 41.1663 29.1952 41.0625 28.6289C40.8292 26.6212 41.5033 24.562 43.0331 23.0176C44.5888 21.4732 46.6631 20.8297 48.6856 21.0614C48.8152 21.0871 49.6708 21.2158 50.4487 21.2158C51.2525 21.2158 52.0822 21.0871 52.2118 21.0614C54.2343 20.8297 56.3086 21.499 57.8643 23.0176C59.42 24.562 60.0682 26.6212 59.8348 28.6289C59.7311 29.1952 59.6793 29.7872 59.6793 30.3792C59.6793 36.2222 64.6576 40.9069 70.6211 40.495C75.6513 40.1604 79.748 36.0935 80.0851 31.1C80.4999 25.1798 75.7809 20.2377 69.8951 20.2377C69.2988 20.2377 68.7024 20.2892 68.132 20.3922C66.1096 20.6238 64.0353 19.9546 62.4796 18.4359C60.9238 16.8915 60.2756 14.8323 60.509 12.8246C60.7423 11.7178 60.6386 10.3793 60.6127 10.0447C60.146 5.43728 56.5678 1.73074 52.0044 1.0615C51.4858 0.98428 50.9673 0.9328 50.4487 0.9328C49.9301 0.9328 49.4116 0.98428 48.893 1.0615C44.3296 1.75648 40.7514 5.46302 40.2847 10.0447C40.2588 10.3793 40.1551 11.9237 40.3884 12.8246C40.6218 14.8323 39.9476 16.8915 38.4178 18.4359C36.8621 19.9803 34.7878 20.6238 32.7654 20.3922C32.195 20.2892 31.5986 20.2377 31.0023 20.2377C25.1165 20.2377 20.3975 25.154 20.8123 31.0742C21.1494 36.0935 25.2461 40.1862 30.3281 40.5208C31.3653 40.598 32.3506 40.495 33.3099 40.2891C34.9434 39.9287 36.6288 40.4436 37.8215 41.6276L59.1348 62.7858C60.3534 64.0985 60.7423 65.9261 60.2238 67.6506C59.9386 68.5773 59.783 69.5554 59.783 70.585C59.783 71.177 59.8348 71.769 59.9386 72.3353C60.1719 74.343 59.4978 76.4022 57.968 77.9466C56.4123 79.491 54.338 80.1345 52.3156 79.9028C52.1859 79.8771 51.3303 79.7484 50.5524 79.7484C49.7486 79.7484 48.9189 79.8771 48.7893 79.9028C46.7668 80.1345 44.6925 79.4652 43.1368 77.9466C41.5811 76.4022 40.9329 74.343 41.1663 72.3353C41.27 71.769 41.3218 71.177 41.3218 70.585C41.3218 64.742 36.3435 60.0574 30.38 60.4692C25.3498 60.8038 21.2531 64.8707 20.916 69.8643C20.5012 75.7844 25.2202 80.7265 31.106 80.7265C31.7023 80.7265 32.2987 80.675 32.8691 80.5721C34.8916 80.3404 36.9658 81.0096 38.5216 82.5283C40.0773 84.0727 40.7255 86.1319 40.4921 88.1396C40.2588 89.2464 40.3625 90.5849 40.3884 90.9195C40.8551 95.5269 44.4333 99.2335 48.9967 99.9027C49.5153 99.9799 50.0338 100.031 50.5524 100.031C51.071 100.031 51.5896 99.9799 52.1081 99.9027C56.6716 99.2077 60.2497 95.5012 60.7164 90.9195C60.7423 90.5849 60.8461 89.0405 60.6127 88.1396C60.3793 86.1319 61.0535 84.0727 62.5833 82.5283C64.139 80.9839 66.2133 80.3404 68.2357 80.5721C68.8061 80.675 69.4025 80.7265 69.9988 80.7265C75.8846 80.7265 80.6036 75.8102 80.1888 69.89Z" fill="url(#paint2_linear_10410_16)"/>
<defs>
<linearGradient id="paint0_linear_10410_16" x1="79.568" y1="50.1199" x2="95.3596" y2="50.1199" gradientUnits="userSpaceOnUse">
<stop stop-color="#31C3E3"/>
<stop offset="1" stop-color="#228BCC"/>
</linearGradient>
<linearGradient id="paint1_linear_10410_16" x1="0.899719" y1="50.1199" x2="16.6913" y2="50.1199" gradientUnits="userSpaceOnUse">
<stop stop-color="#31C3E3"/>
<stop offset="1" stop-color="#228BCC"/>
</linearGradient>
<linearGradient id="paint2_linear_10410_16" x1="20.7869" y1="50.4821" x2="80.2142" y2="50.4821" gradientUnits="userSpaceOnUse">
<stop stop-color="#F58220"/>
<stop offset="1" stop-color="#F04F24"/>
</linearGradient>
</defs>
</svg>
