<svg width="32" height="32" viewBox="0 0 32 32" fill="none" xmlns="http://www.w3.org/2000/svg">
<rect width="32" height="32" rx="6" fill="#3366FF"/>
<path fill-rule="evenodd" clip-rule="evenodd" d="M21.281 13.754C20.6287 13.1011 18.1519 10.6874 18.1519 9.7913C18.1519 9.11228 18.4962 8.5042 19.0025 8.13935C17.8278 7.58194 16.5114 7.25763 15.1139 7.25763C10.081 7.25763 6 11.3419 6 16.3788C6 21.4158 10.081 25.5001 15.1139 25.5001C20.1468 25.5001 24.2278 21.4158 24.2278 16.3788C24.2278 15.5377 24.1063 14.7269 23.8937 13.9567C23.1038 14.5343 21.9899 14.4735 21.281 13.754ZM18.4051 20.2503C17.8987 20.757 17.2203 21.0307 16.5114 21.0307H15.8329V21.7913C15.8329 22.1884 15.511 22.5103 15.1139 22.5103C14.7168 22.5103 14.3949 22.1884 14.3949 21.7913V21.0307H12.3297C11.9323 21.0307 11.6101 20.7085 11.6101 20.3111C11.6101 19.9137 11.9323 19.5915 12.3297 19.5915H16.5114C16.8354 19.5915 17.1595 19.4598 17.3924 19.2267C17.6253 18.9936 17.757 18.6794 17.757 18.345C17.757 18.0207 17.6253 17.6964 17.3924 17.4633C17.1595 17.2302 16.8456 17.0984 16.5114 17.0984H13.7165C13.0076 17.0984 12.3291 16.8146 11.8228 16.318C11.3165 15.8113 11.043 15.1323 11.043 14.4229C11.043 13.7134 11.3266 13.0344 11.8228 12.5277C12.3291 12.0209 13.0076 11.7473 13.7165 11.7473H14.3949V11.0981C14.3949 10.701 14.7168 10.3791 15.1139 10.3791C15.511 10.3791 15.8329 10.701 15.8329 11.0981V11.7574H17.5539C17.9513 11.7574 18.2734 12.0796 18.2734 12.477C18.2734 12.8744 17.9513 13.1966 17.5539 13.1966H13.7165C13.3924 13.1966 13.0684 13.3283 12.8354 13.5614C12.6025 13.7945 12.4709 14.1087 12.4709 14.433C12.4709 14.7573 12.6025 15.0816 12.8354 15.3147C13.0684 15.5478 13.3823 15.6796 13.7165 15.6796H16.5114C17.2203 15.6796 17.8987 15.9633 18.4051 16.4599C18.9114 16.9667 19.1848 17.6457 19.1848 18.3551C19.1949 19.0645 18.9114 19.7436 18.4051 20.2503Z" fill="white"/>
<path d="M23.2456 6.72043C22.9519 6.42652 22.4658 6.42652 22.1721 6.72043L19.6405 9.2541C19.5696 9.32504 19.519 9.40612 19.4785 9.49733C19.438 9.58855 19.4177 9.68989 19.4177 9.79124C19.4177 9.89259 19.438 9.99393 19.4785 10.0851C19.5089 10.1764 19.5696 10.2574 19.6405 10.3284L22.1721 12.862C22.4658 13.156 22.9519 13.156 23.2456 12.862C23.5392 12.5681 23.5392 12.0817 23.2456 11.7878L22.0101 10.5513H25.2405C25.6557 10.5513 26 10.2068 26 9.79124C26 9.37572 25.6557 9.03114 25.2405 9.03114H22.0101L23.2456 7.79471C23.5392 7.5008 23.5392 7.01434 23.2456 6.72043Z" fill="white"/>
</svg>
