<svg width="32" height="32" viewBox="0 0 32 32" fill="none" xmlns="http://www.w3.org/2000/svg">
<rect width="32" height="32" rx="6" fill="#F05252"/>
<path fill-rule="evenodd" clip-rule="evenodd" d="M23.2456 6.72043C22.9519 6.42652 22.4658 6.42652 22.1722 6.72043C21.8785 7.01434 21.8785 7.5008 22.1722 7.79471L23.4076 9.03114H20.1772C19.762 9.03114 19.4177 9.37572 19.4177 9.79124C19.4177 10.2068 19.762 10.5513 20.1772 10.5513H23.4076L22.1722 11.7878C21.8785 12.0817 21.8785 12.5681 22.1722 12.862C22.4658 13.156 22.9519 13.156 23.2456 12.862L25.7772 10.3284C25.8481 10.2574 25.9089 10.1764 25.9392 10.0851C25.9797 9.99393 26 9.89259 26 9.79124C26 9.68989 25.9797 9.58855 25.9392 9.49733C25.8987 9.40612 25.8481 9.32504 25.7772 9.2541L23.2456 6.72043Z" fill="white"/>
<path fill-rule="evenodd" clip-rule="evenodd" d="M21.281 13.7539C20.7544 13.2269 20.5823 12.4871 20.7544 11.8182H20.1772C19.0633 11.8182 18.1519 10.9061 18.1519 9.79124C18.1519 9.11221 18.4962 8.50413 19.0025 8.13929C17.8278 7.58188 16.5114 7.25757 15.1139 7.25757C10.081 7.25757 6 11.3418 6 16.3788C6 21.4157 10.081 25.5 15.1139 25.5C20.1468 25.5 24.2278 21.4157 24.2278 16.3788C24.2278 15.5376 24.1063 14.7268 23.8937 13.9566C23.1038 14.5343 21.9899 14.4735 21.281 13.7539ZM18.4051 20.2502C17.8987 20.757 17.2203 21.0306 16.5114 21.0306H15.8329V21.7913C15.8329 22.1884 15.511 22.5103 15.1139 22.5103C14.7168 22.5103 14.3949 22.1884 14.3949 21.7913V21.0306H12.3297C11.9323 21.0306 11.6101 20.7084 11.6101 20.311C11.6101 19.9136 11.9323 19.5915 12.3297 19.5915H16.5114C16.8354 19.5915 17.1595 19.4597 17.3924 19.2266C17.6253 18.9935 17.757 18.6794 17.757 18.3449C17.757 18.0206 17.6253 17.6963 17.3924 17.4632C17.1595 17.2301 16.8456 17.0983 16.5114 17.0983H13.7165C13.0076 17.0983 12.3291 16.8146 11.8228 16.318C11.3165 15.8112 11.043 15.1322 11.043 14.4228C11.043 13.7134 11.3266 13.0343 11.8228 12.5276C12.3291 12.0209 13.0076 11.7472 13.7165 11.7472H14.3949V11.098C14.3949 10.701 14.7168 10.3791 15.1139 10.3791C15.511 10.3791 15.8329 10.701 15.8329 11.098V11.7574H17.5539C17.9513 11.7574 18.2734 12.0795 18.2734 12.4769C18.2734 12.8743 17.9513 13.1965 17.5539 13.1965H13.7165C13.3924 13.1965 13.0684 13.3282 12.8354 13.5613C12.6025 13.7944 12.4709 14.1086 12.4709 14.4329C12.4709 14.7572 12.6025 15.0815 12.8354 15.3146C13.0684 15.5477 13.3823 15.6795 13.7165 15.6795H16.5114C17.2203 15.6795 17.8987 15.9633 18.4051 16.4599C18.9114 16.9666 19.1848 17.6456 19.1848 18.355C19.1949 19.0645 18.9114 19.7435 18.4051 20.2502Z" fill="white"/>
</svg>
