<svg width="21" height="21" viewBox="0 0 21 21" fill="none" xmlns="http://www.w3.org/2000/svg">
<path d="M18.5397 9.57087V14.6503C18.5397 18.0367 17.7107 18.8832 14.395 18.8832H6.1058C2.79011 18.8832 1.96118 18.0367 1.96118 14.6503V6.18455C1.96118 2.79824 2.79011 1.95166 6.1058 1.95166H7.34919C8.59257 1.95166 8.86612 2.32415 9.3386 2.96755L10.582 4.66071C10.897 5.084 11.0793 5.33798 11.9083 5.33798H14.395C17.7107 5.33798 18.5397 6.18455 18.5397 9.57087Z" stroke="#5C5967" stroke-miterlimit="10"/>
<path d="M7.34912 1.95166H14.8094C16.4673 1.95166 17.2962 2.79824 17.2962 4.4914V5.65968" stroke="#5C5967" stroke-miterlimit="10" stroke-linecap="round" stroke-linejoin="round"/>
<path d="M12.3226 12.9573H8.17798" stroke="#5C5967" stroke-miterlimit="10" stroke-linecap="round" stroke-linejoin="round"/>
</svg>
