<svg width="21" height="21" viewBox="0 0 21 21" fill="none" xmlns="http://www.w3.org/2000/svg">
<path d="M18.8004 9.57087V14.6503C18.8004 18.0367 17.9715 18.8832 14.6558 18.8832H6.36654C3.05085 18.8832 2.22192 18.0367 2.22192 14.6503V6.18455C2.22192 2.79824 3.05085 1.95166 6.36654 1.95166H7.60993C8.85332 1.95166 9.12686 2.32415 9.59935 2.96755L10.8427 4.66071C11.1577 5.084 11.3401 5.33798 12.169 5.33798H14.6558C17.9715 5.33798 18.8004 6.18455 18.8004 9.57087Z" stroke="#5C5967" stroke-miterlimit="10"/>
<path d="M7.60986 1.95166H15.0702C16.728 1.95166 17.5569 2.79824 17.5569 4.4914V5.65968" stroke="#5C5967" stroke-miterlimit="10" stroke-linecap="round" stroke-linejoin="round"/>
<path d="M12.5833 12.9573H8.43872" stroke="#5C5967" stroke-miterlimit="10" stroke-linecap="round" stroke-linejoin="round"/>
</svg>
