<svg width="21" height="22" viewBox="0 0 21 22" fill="none" xmlns="http://www.w3.org/2000/svg">
<path d="M18.8004 10.0714V15.1508C18.8004 18.5371 17.9715 19.3837 14.6558 19.3837H6.36654C3.05085 19.3837 2.22192 18.5371 2.22192 15.1508V6.68504C2.22192 3.29873 3.05085 2.45215 6.36654 2.45215H7.60993C8.85332 2.45215 9.12686 2.82464 9.59935 3.46804L10.8427 5.1612C11.1577 5.58449 11.3401 5.83846 12.169 5.83846H14.6558C17.9715 5.83846 18.8004 6.68504 18.8004 10.0714Z" stroke="#5C5967" stroke-miterlimit="10"/>
<path d="M7.60986 2.45215H15.0702C16.728 2.45215 17.5569 3.29873 17.5569 4.99189V6.16016" stroke="#5C5967" stroke-miterlimit="10" stroke-linecap="round" stroke-linejoin="round"/>
<path d="M12.5833 13.4575H8.43872" stroke="#5C5967" stroke-miterlimit="10" stroke-linecap="round" stroke-linejoin="round"/>
</svg>
