<svg width="21" height="21" viewBox="0 0 21 21" fill="none" xmlns="http://www.w3.org/2000/svg">
<path d="M18.17 9.57087V14.6503C18.17 18.0367 17.3411 18.8832 14.0254 18.8832H5.73617C2.42048 18.8832 1.59155 18.0367 1.59155 14.6503V6.18455C1.59155 2.79824 2.42048 1.95166 5.73617 1.95166H6.97956C8.22294 1.95166 8.49649 2.32415 8.96898 2.96755L10.2124 4.66071C10.5274 5.084 10.7097 5.33798 11.5386 5.33798H14.0254C17.3411 5.33798 18.17 6.18455 18.17 9.57087Z" stroke="#5C5967" stroke-miterlimit="10"/>
<path d="M6.97949 1.95166H14.4398C16.0977 1.95166 16.9266 2.79824 16.9266 4.4914V5.65968" stroke="#5C5967" stroke-miterlimit="10" stroke-linecap="round" stroke-linejoin="round"/>
<path d="M11.953 12.9573H7.80835" stroke="#5C5967" stroke-miterlimit="10" stroke-linecap="round" stroke-linejoin="round"/>
</svg>
