<svg width="21" height="21" viewBox="0 0 21 21" fill="none" xmlns="http://www.w3.org/2000/svg">
<path d="M18.5399 9.57087V14.6503C18.5399 18.0367 17.711 18.8832 14.3953 18.8832H6.10605C2.79035 18.8832 1.96143 18.0367 1.96143 14.6503V6.18455C1.96143 2.79824 2.79035 1.95166 6.10605 1.95166H7.34943C8.59282 1.95166 8.86636 2.32415 9.33885 2.96755L10.5822 4.66071C10.8972 5.084 11.0796 5.33798 11.9085 5.33798H14.3953C17.711 5.33798 18.5399 6.18455 18.5399 9.57087Z" stroke="#5C5967" stroke-miterlimit="10"/>
<path d="M7.34912 1.95166H14.8094C16.4673 1.95166 17.2962 2.79824 17.2962 4.4914V5.65968" stroke="#5C5967" stroke-miterlimit="10" stroke-linecap="round" stroke-linejoin="round"/>
<path d="M12.3228 12.9573H8.17822" stroke="#5C5967" stroke-miterlimit="10" stroke-linecap="round" stroke-linejoin="round"/>
</svg>
