<svg width="21" height="22" viewBox="0 0 21 22" fill="none" xmlns="http://www.w3.org/2000/svg">
<path d="M18.8006 10.0714V15.1508C18.8006 18.5371 17.9717 19.3837 14.656 19.3837H6.36679C3.05109 19.3837 2.22217 18.5371 2.22217 15.1508V6.68504C2.22217 3.29873 3.05109 2.45215 6.36679 2.45215H7.61017C8.85356 2.45215 9.1271 2.82464 9.59959 3.46804L10.843 5.1612C11.158 5.58449 11.3403 5.83846 12.1693 5.83846H14.656C17.9717 5.83846 18.8006 6.68504 18.8006 10.0714Z" stroke="#5C5967" stroke-miterlimit="10"/>
<path d="M7.60986 2.45215H15.0702C16.728 2.45215 17.5569 3.29873 17.5569 4.99189V6.16016" stroke="#5C5967" stroke-miterlimit="10" stroke-linecap="round" stroke-linejoin="round"/>
<path d="M12.5836 13.4575H8.43896" stroke="#5C5967" stroke-miterlimit="10" stroke-linecap="round" stroke-linejoin="round"/>
</svg>
