<svg width="21" height="21" viewBox="0 0 21 21" fill="none" xmlns="http://www.w3.org/2000/svg">
<path d="M18.8006 9.57087V14.6503C18.8006 18.0367 17.9717 18.8832 14.656 18.8832H6.36679C3.05109 18.8832 2.22217 18.0367 2.22217 14.6503V6.18455C2.22217 2.79824 3.05109 1.95166 6.36679 1.95166H7.61017C8.85356 1.95166 9.1271 2.32415 9.59959 2.96755L10.843 4.66071C11.158 5.084 11.3403 5.33798 12.1693 5.33798H14.656C17.9717 5.33798 18.8006 6.18455 18.8006 9.57087Z" stroke="#5C5967" stroke-miterlimit="10"/>
<path d="M7.60986 1.95166H15.0702C16.728 1.95166 17.5569 2.79824 17.5569 4.4914V5.65968" stroke="#5C5967" stroke-miterlimit="10" stroke-linecap="round" stroke-linejoin="round"/>
<path d="M12.5836 12.9573H8.43896" stroke="#5C5967" stroke-miterlimit="10" stroke-linecap="round" stroke-linejoin="round"/>
</svg>
