<svg width="18" height="21" viewBox="0 0 18 21" fill="none" xmlns="http://www.w3.org/2000/svg">
<path d="M15.6769 9.31257V14.392C15.6769 17.7784 14.9477 18.6249 12.0311 18.6249H4.73953C1.82291 18.6249 1.09375 17.7784 1.09375 14.392V5.92625C1.09375 2.53994 1.82291 1.69336 4.73953 1.69336H5.83327C6.927 1.69336 7.16763 2.06585 7.58325 2.70925L8.67698 4.40241C8.95406 4.8257 9.11448 5.07968 9.84363 5.07968H12.0311C14.9477 5.07968 15.6769 5.92625 15.6769 9.31257Z" stroke="#5C5967" stroke-miterlimit="10"/>
<path d="M5.8335 1.69336H12.3959C13.8542 1.69336 14.5834 2.53994 14.5834 4.2331V5.40138" stroke="#5C5967" stroke-miterlimit="10" stroke-linecap="round" stroke-linejoin="round"/>
<path d="M10.2083 12.6987H6.5625" stroke="#5C5967" stroke-miterlimit="10" stroke-linecap="round" stroke-linejoin="round"/>
</svg>
