<svg width="21" height="21" viewBox="0 0 21 21" fill="none" xmlns="http://www.w3.org/2000/svg">
<path d="M18.1703 9.57087V14.6503C18.1703 18.0367 17.3414 18.8832 14.0257 18.8832H5.73642C2.42072 18.8832 1.5918 18.0367 1.5918 14.6503V6.18455C1.5918 2.79824 2.42072 1.95166 5.73642 1.95166H6.9798C8.22319 1.95166 8.49673 2.32415 8.96922 2.96755L10.2126 4.66071C10.5276 5.084 10.71 5.33798 11.5389 5.33798H14.0257C17.3414 5.33798 18.1703 6.18455 18.1703 9.57087Z" stroke="#5C5967" stroke-miterlimit="10"/>
<path d="M6.97949 1.95166H14.4398C16.0977 1.95166 16.9266 2.79824 16.9266 4.4914V5.65968" stroke="#5C5967" stroke-miterlimit="10" stroke-linecap="round" stroke-linejoin="round"/>
<path d="M11.9532 12.9573H7.80859" stroke="#5C5967" stroke-miterlimit="10" stroke-linecap="round" stroke-linejoin="round"/>
</svg>
